<svg width="239" height="239" viewBox="0 0 239 239" fill="none" xmlns="http://www.w3.org/2000/svg">
<path d="M167.917 32.5V78.5417L198.9 96.85L190.775 110.067L151.667 86.6667V32.5H167.917ZM162.5 130C177.233 130 190.017 124.583 200.417 114.075C211.25 103.567 216.667 90.8917 216.667 75.8333C216.667 61.1 211.25 48.3167 200.417 37.9167C190.017 27.0833 177.233 21.6667 162.5 21.6667C147.442 21.6667 134.767 27.0833 124.258 37.9167C113.75 48.3167 108.333 61.1 108.333 75.8333C108.333 90.8917 113.75 103.567 124.258 114.075C134.767 124.583 147.442 130 162.5 130ZM135.417 195C140.183 195 144.083 193.267 147.117 190.017C150.15 186.767 151.667 182.975 151.667 178.75C151.667 174.2 150.15 170.408 147.117 167.158C144.083 163.908 140.183 162.5 135.417 162.5C130.65 162.5 126.75 163.908 123.717 167.158C120.683 170.408 119.167 174.2 119.167 178.75C119.167 182.975 120.683 186.767 123.717 190.017C126.75 193.267 130.65 195 135.417 195ZM21.6667 130H109.525C94.25 115.267 86.6667 97.5 86.6667 75.8333H21.6667V130ZM37.9167 195C42.6833 195 46.5833 193.267 49.6167 190.017C52.65 186.767 54.1667 182.975 54.1667 178.75C54.1667 174.2 52.65 170.408 49.6167 167.158C46.5833 163.908 42.6833 162.5 37.9167 162.5C33.15 162.5 29.25 163.908 26.2167 167.158C23.1833 170.408 21.6667 174.2 21.6667 178.75C21.6667 182.975 23.1833 186.767 26.2167 190.017C29.25 193.267 33.15 195 37.9167 195ZM162.5 0C183.3 0 201.283 7.25833 216.125 22.2083C231.075 37.05 238.333 55.0333 238.333 75.8333C238.333 95.0083 232.267 111.475 219.7 125.558C207.242 139.533 191.75 147.983 173.333 150.692V184.167C173.333 193.267 169.758 201.283 162.5 208V227.5C162.5 230.425 161.308 232.917 159.25 235.192C157.083 237.358 154.7 238.333 151.667 238.333H140.833C137.908 238.333 135.417 237.358 133.142 235.192C132.129 234.186 131.329 232.987 130.789 231.665C130.249 230.344 129.981 228.927 130 227.5V216.667H43.3333V227.5C43.3333 230.425 42.3583 232.917 40.1917 235.192C37.9167 237.358 35.425 238.333 32.5 238.333H21.6667C18.6333 238.333 16.25 237.358 14.0833 235.192C12.025 232.917 10.8333 230.425 10.8333 227.5V208C3.575 201.283 0 193.267 0 184.167V75.8333C0 58.7167 7.25833 47.125 22.2083 41.1667C37.05 35.3167 58.6083 32.5 86.6667 32.5H93.275C96.3083 32.5 98.475 32.825 99.8833 32.825C115.158 10.8333 135.958 0 162.5 0Z" fill="#FF7426" fill-opacity="0.26"/>
</svg>
