<svg width="252" height="206" viewBox="0 0 252 206" fill="none" xmlns="http://www.w3.org/2000/svg">
<path d="M45.3794 169.117H22.5977L18.6191 182H0.85791L26.1499 113.039H41.7798L67.2612 182H49.4053L45.3794 169.117ZM26.5762 156.282H41.4009L33.9648 132.363L26.5762 156.282ZM124.171 158.65C123.95 163.449 122.655 167.696 120.287 171.391C117.919 175.053 114.588 177.895 110.294 179.916C106.031 181.937 101.153 182.947 95.6584 182.947C86.5962 182.947 79.4601 179.995 74.2502 174.09C69.0402 168.186 66.4352 159.85 66.4352 149.083V145.672C66.4352 138.915 67.6035 133.011 69.9401 127.958C72.3083 122.875 75.7026 118.959 80.1232 116.212C84.5438 113.434 89.659 112.044 95.4689 112.044C103.836 112.044 110.562 114.255 115.646 118.675C120.729 123.064 123.618 129.127 124.313 136.863H107.736C107.61 132.663 106.552 129.648 104.563 127.816C102.573 125.985 99.5421 125.069 95.4689 125.069C91.3325 125.069 88.3013 126.617 86.3752 129.711C84.449 132.805 83.4386 137.747 83.3439 144.536V149.414C83.3439 156.771 84.2596 162.028 86.091 165.186C87.9539 168.344 91.1431 169.922 95.6584 169.922C99.479 169.922 102.4 169.022 104.421 167.223C106.441 165.423 107.515 162.565 107.641 158.65H124.171ZM171.892 152.777H145.748V169.212H176.629V182H129.123V113.039H176.723V125.875H145.748V140.415H171.892V152.777ZM236.286 158.65C236.065 163.449 234.77 167.696 232.402 171.391C230.034 175.053 226.702 177.895 222.408 179.916C218.145 181.937 213.267 182.947 207.773 182.947C198.711 182.947 191.575 179.995 186.365 174.09C181.155 168.186 178.55 159.85 178.55 149.083V145.672C178.55 138.915 179.718 133.011 182.055 127.958C184.423 122.875 187.817 118.959 192.238 116.212C196.658 113.434 201.774 112.044 207.583 112.044C215.951 112.044 222.677 114.255 227.76 118.675C232.844 123.064 235.733 129.127 236.428 136.863H219.851C219.724 132.663 218.666 129.648 216.677 127.816C214.688 125.985 211.657 125.069 207.583 125.069C203.447 125.069 200.416 126.617 198.49 129.711C196.564 132.805 195.553 137.747 195.458 144.536V149.414C195.458 156.771 196.374 162.028 198.206 165.186C200.069 168.344 203.258 169.922 207.773 169.922C211.594 169.922 214.514 169.022 216.535 167.223C218.556 165.423 219.63 162.565 219.756 158.65H236.286Z" fill="black"/>
<path d="M19 1L49 17V103H19V1Z" fill="#FFE600"/>
<path d="M82 30L112 46.5V102.5H82V30Z" fill="#FFE600"/>
<path d="M139 58L169 74.5V102.5H139V58Z" fill="#FFE600"/>
<path d="M196 86L226 102.5H196V86Z" fill="#FFE600"/>
</svg>
